<svg xmlns="http://www.w3.org/2000/svg" viewBox="0 0 1000 560" fill="none">
  <defs>
    <linearGradient id="cellStroke" x1="220" y1="40" x2="980" y2="540" gradientUnits="userSpaceOnUse">
      <stop stop-color="#ffffff" stop-opacity="0.5"/>
      <stop offset="0.58" stop-color="#f6e0df" stop-opacity="0.34"/>
      <stop offset="1" stop-color="#ffffff" stop-opacity="0.42"/>
    </linearGradient>
    <linearGradient id="cellFill" x1="360" y1="70" x2="920" y2="520" gradientUnits="userSpaceOnUse">
      <stop stop-color="#ffffff" stop-opacity="0.14"/>
      <stop offset="1" stop-color="#f6e0df" stop-opacity="0.05"/>
    </linearGradient>
  </defs>

  <g stroke="url(#cellStroke)" stroke-width="1.35" stroke-linecap="round" stroke-linejoin="round">
    <path d="M736 40C804 24 858 52 886 107C918 171 887 233 823 248C751 265 696 219 690 150C685 92 701 49 736 40Z" fill="url(#cellFill)"/>
    <path d="M780 77C815 65 850 82 862 116C876 153 855 188 817 196C777 205 747 181 741 142C736 111 750 87 780 77Z" opacity="0.58"/>
    <path d="M850 256C915 244 965 280 980 340C996 404 957 458 890 463C823 468 775 421 777 356C779 305 805 265 850 256Z" fill="url(#cellFill)" opacity="0.82"/>
    <path d="M887 293C921 287 947 306 953 338C960 372 938 399 903 401C868 404 843 380 844 347C845 320 862 298 887 293Z" opacity="0.54"/>
    <path d="M608 124C656 109 704 130 722 176C743 228 713 274 660 284C604 294 563 260 558 206C554 167 575 134 608 124Z" fill="url(#cellFill)" opacity="0.78"/>
    <path d="M630 156C660 148 690 163 700 192C711 223 693 251 661 256C630 262 605 242 603 211C601 185 612 161 630 156Z" opacity="0.48"/>
    <path d="M492 328C542 304 596 323 622 369C650 419 629 476 577 494C520 514 467 484 453 428C442 383 458 344 492 328Z" fill="url(#cellFill)" opacity="0.66"/>
    <path d="M526 361C556 347 588 359 602 386C617 414 605 446 575 456C542 468 512 452 504 420C498 394 507 371 526 361Z" opacity="0.42"/>
    <path d="M742 420C783 402 830 416 852 454C877 497 857 541 812 554C766 568 724 544 713 499C705 465 716 431 742 420Z" fill="url(#cellFill)" opacity="0.6"/>
    <path d="M764 447C789 436 818 445 830 469C843 494 831 520 804 527C777 535 752 521 746 494C742 473 749 454 764 447Z" opacity="0.42"/>
    <path d="M910 112C941 102 972 119 984 149C998 183 979 216 944 222C908 229 879 207 876 171C873 142 889 119 910 112Z" fill="url(#cellFill)" opacity="0.52"/>
    <path d="M420 232C455 218 494 231 512 264C531 300 515 337 477 348C437 359 402 338 395 299C390 269 400 240 420 232Z" fill="url(#cellFill)" opacity="0.52"/>
  </g>

  <g stroke="#ffffff" stroke-opacity="0.18" stroke-width="1" stroke-linecap="round">
    <path d="M566 88C604 66 640 60 681 72"/>
    <path d="M673 307C717 290 752 292 790 313"/>
    <path d="M640 522C676 498 708 492 746 505"/>
    <path d="M906 58C938 50 962 57 986 78"/>
    <path d="M420 414C452 390 482 384 520 397"/>
  </g>

  <g fill="#ffffff" fill-opacity="0.42">
    <path d="M660 94c3-2 7-1 9 2s1 7-2 9-7 1-9-2-1-7 2-9Z"/>
    <path d="M735 284c3-2 8-1 10 3s1 8-3 10-8 1-10-3-1-8 3-10Z"/>
    <path d="M610 504c3-2 7-1 9 2s1 7-2 9-7 1-9-2-1-7 2-9Z"/>
    <path d="M926 510c4-2 9-1 11 3s1 9-3 11-9 1-11-3-1-9 3-11Z"/>
    <path d="M540 172c2-2 6-1 8 1s1 6-1 8-6 1-8-1-1-6 1-8Z"/>
    <path d="M470 304c3-2 7-1 9 2s1 7-2 9-7 1-9-2-1-7 2-9Z"/>
  </g>
</svg>
