<svg xmlns="http://www.w3.org/2000/svg" viewBox="0 0 1000 560" fill="none">
  <defs>
    <radialGradient id="nuc" cx="38%" cy="34%" r="70%">
      <stop offset="0%" stop-color="#ffffff" stop-opacity="0.6"/>
      <stop offset="100%" stop-color="#d6a39a" stop-opacity="0.14"/>
    </radialGradient>
  </defs>
  <circle cx="820" cy="150" r="140" fill="#ffffff" fill-opacity="0.03" stroke="#ffffff" stroke-opacity="0.42" stroke-width="1.5"/>
  <circle cx="820" cy="150" r="109" fill="none" stroke="#ffffff" stroke-opacity="0.22" stroke-width="1.1" stroke-dasharray="3 9" stroke-linecap="round"/>
  <circle cx="848" cy="119" r="59" fill="url(#nuc)" stroke="#ffffff" stroke-opacity="0.5" stroke-width="1.1"/>
  <circle cx="833" cy="104" r="19" fill="#ffffff" fill-opacity="0.5"/>
  <circle cx="764" cy="209" r="13" fill="#ffffff" fill-opacity="0.38"/>
  <circle cx="883" cy="192" r="8" fill="#f6e0df" fill-opacity="0.5"/>
  <circle cx="905" cy="385" r="98" fill="#ffffff" fill-opacity="0.03" stroke="#ffffff" stroke-opacity="0.42" stroke-width="1.5"/>
  <circle cx="905" cy="385" r="76" fill="none" stroke="#ffffff" stroke-opacity="0.22" stroke-width="1.1" stroke-dasharray="3 9" stroke-linecap="round"/>
  <circle cx="925" cy="363" r="41" fill="url(#nuc)" stroke="#ffffff" stroke-opacity="0.5" stroke-width="1.1"/>
  <circle cx="914" cy="353" r="13" fill="#ffffff" fill-opacity="0.5"/>
  <circle cx="866" cy="426" r="9" fill="#ffffff" fill-opacity="0.38"/>
  <circle cx="949" cy="414" r="6" fill="#f6e0df" fill-opacity="0.5"/>
  <circle cx="690" cy="300" r="62" fill="#ffffff" fill-opacity="0.03" stroke="#ffffff" stroke-opacity="0.42" stroke-width="1.5"/>
  <circle cx="690" cy="300" r="48" fill="none" stroke="#ffffff" stroke-opacity="0.22" stroke-width="1.1" stroke-dasharray="3 9" stroke-linecap="round"/>
  <circle cx="702" cy="286" r="26" fill="url(#nuc)" stroke="#ffffff" stroke-opacity="0.5" stroke-width="1.1"/>
  <circle cx="696" cy="280" r="8" fill="#ffffff" fill-opacity="0.5"/>
  <circle cx="665" cy="326" r="6" fill="#ffffff" fill-opacity="0.38"/>
  <circle cx="718" cy="319" r="4" fill="#f6e0df" fill-opacity="0.5"/>
  <circle cx="565" cy="165" r="56" fill="#ffffff" fill-opacity="0.03" stroke="#ffffff" stroke-opacity="0.42" stroke-width="1.5"/>
  <circle cx="565" cy="165" r="44" fill="none" stroke="#ffffff" stroke-opacity="0.22" stroke-width="1.1" stroke-dasharray="3 9" stroke-linecap="round"/>
  <circle cx="576" cy="153" r="24" fill="url(#nuc)" stroke="#ffffff" stroke-opacity="0.5" stroke-width="1.1"/>
  <circle cx="570" cy="147" r="8" fill="#ffffff" fill-opacity="0.5"/>
  <circle cx="543" cy="189" r="5" fill="#ffffff" fill-opacity="0.38"/>
  <circle cx="590" cy="182" r="3" fill="#f6e0df" fill-opacity="0.5"/>
  <circle cx="615" cy="445" r="72" fill="#ffffff" fill-opacity="0.03" stroke="#ffffff" stroke-opacity="0.42" stroke-width="1.5"/>
  <circle cx="615" cy="445" r="56" fill="none" stroke="#ffffff" stroke-opacity="0.22" stroke-width="1.1" stroke-dasharray="3 9" stroke-linecap="round"/>
  <circle cx="629" cy="429" r="30" fill="url(#nuc)" stroke="#ffffff" stroke-opacity="0.5" stroke-width="1.1"/>
  <circle cx="622" cy="422" r="10" fill="#ffffff" fill-opacity="0.5"/>
  <circle cx="586" cy="475" r="6" fill="#ffffff" fill-opacity="0.38"/>
  <circle cx="647" cy="467" r="4" fill="#f6e0df" fill-opacity="0.5"/>
  <circle cx="470" cy="360" r="42" fill="#ffffff" fill-opacity="0.03" stroke="#ffffff" stroke-opacity="0.42" stroke-width="1.5"/>
  <circle cx="470" cy="360" r="33" fill="none" stroke="#ffffff" stroke-opacity="0.22" stroke-width="1.1" stroke-dasharray="3 9" stroke-linecap="round"/>
  <circle cx="478" cy="351" r="18" fill="url(#nuc)" stroke="#ffffff" stroke-opacity="0.5" stroke-width="1.1"/>
  <circle cx="474" cy="346" r="6" fill="#ffffff" fill-opacity="0.5"/>
  <circle cx="453" cy="378" r="4" fill="#ffffff" fill-opacity="0.38"/>
  <circle cx="489" cy="373" r="3" fill="#f6e0df" fill-opacity="0.5"/>
  <circle cx="772" cy="475" r="44" fill="#ffffff" fill-opacity="0.03" stroke="#ffffff" stroke-opacity="0.42" stroke-width="1.5"/>
  <circle cx="772" cy="475" r="34" fill="none" stroke="#ffffff" stroke-opacity="0.22" stroke-width="1.1" stroke-dasharray="3 9" stroke-linecap="round"/>
  <circle cx="781" cy="465" r="18" fill="url(#nuc)" stroke="#ffffff" stroke-opacity="0.5" stroke-width="1.1"/>
  <circle cx="776" cy="461" r="6" fill="#ffffff" fill-opacity="0.5"/>
  <circle cx="754" cy="493" r="4" fill="#ffffff" fill-opacity="0.38"/>
  <circle cx="792" cy="488" r="3" fill="#f6e0df" fill-opacity="0.5"/>
  <circle cx="945" cy="235" r="40" fill="#ffffff" fill-opacity="0.03" stroke="#ffffff" stroke-opacity="0.42" stroke-width="1.5"/>
  <circle cx="945" cy="235" r="31" fill="none" stroke="#ffffff" stroke-opacity="0.22" stroke-width="1.1" stroke-dasharray="3 9" stroke-linecap="round"/>
  <circle cx="953" cy="226" r="17" fill="url(#nuc)" stroke="#ffffff" stroke-opacity="0.5" stroke-width="1.1"/>
  <circle cx="949" cy="222" r="5" fill="#ffffff" fill-opacity="0.5"/>
  <circle cx="929" cy="252" r="4" fill="#ffffff" fill-opacity="0.38"/>
  <circle cx="963" cy="247" r="2" fill="#f6e0df" fill-opacity="0.5"/>
  <circle cx="540" cy="300" r="3" fill="#ffffff" fill-opacity="0.6"/>
  <circle cx="660" cy="180" r="3.4" fill="#ffffff" fill-opacity="0.6"/>
  <circle cx="860" cy="250" r="2.6" fill="#ffffff" fill-opacity="0.6"/>
  <circle cx="720" cy="400" r="3" fill="#ffffff" fill-opacity="0.6"/>
  <circle cx="500" cy="210" r="2.4" fill="#ffffff" fill-opacity="0.6"/>
  <circle cx="960" cy="150" r="3.2" fill="#ffffff" fill-opacity="0.6"/>
  <circle cx="620" cy="360" r="2.6" fill="#ffffff" fill-opacity="0.6"/>
  <circle cx="800" cy="330" r="2.4" fill="#ffffff" fill-opacity="0.6"/>
  <circle cx="900" cy="500" r="3" fill="#ffffff" fill-opacity="0.6"/>
  <circle cx="700" cy="520" r="2.6" fill="#ffffff" fill-opacity="0.6"/>
</svg>
